<svg width="111" height="111" viewBox="0 0 111 111" fill="none" xmlns="http://www.w3.org/2000/svg">
<path fill-rule="evenodd" clip-rule="evenodd" d="M92 41.1375C92 45.3095 90.9921 49.2206 88.9764 52.8711C87.0354 56.5215 83.9371 59.4642 79.6817 61.6991C75.501 63.9341 70.2004 65.0516 63.78 65.0516H56.3724V52.4241H63.1081C67.4381 52.4241 70.6483 51.4556 72.7387 49.5186C74.8291 47.5072 75.8743 44.7135 75.8743 41.1375C75.8743 33.5387 71.6189 29.7393 63.1081 29.7393H56.3724V17H63.78C69.8271 17 74.9784 18.043 79.2338 20.1289C83.4892 22.2149 86.6621 25.0831 88.7525 28.7335C90.9175 32.384 92 36.5186 92 41.1375ZM50.6778 65.0516V95H35V17H50.6778V29.7393V52.4241V65.0516Z" fill="black"/>
<path d="M70.87 41.0083C70.87 45.5889 67.1489 49.3021 62.5586 49.3021C57.9684 49.3021 54.2473 45.5889 54.2473 41.0083C54.2473 36.4278 57.9684 32.7145 62.5586 32.7145C67.1489 32.7145 70.87 36.4278 70.87 41.0083Z" fill="black"/>
</svg>
